<mxfile host="app.diagrams.net" agent="Mozilla/5.0 (Windows NT 10.0; Win64; x64) AppleWebKit/537.36 (KHTML, like Gecko) Chrome/139.0.0.0 Safari/537.36" version="28.1.0">
  <diagram name="Page-1" id="mZl_dv6M6F0q-DWZn7aN">
    <mxGraphModel dx="1042" dy="527" grid="1" gridSize="10" guides="1" tooltips="1" connect="1" arrows="1" fold="1" page="1" pageScale="1" pageWidth="850" pageHeight="1100" math="0" shadow="0">
      <root>
        <mxCell id="0" />
        <mxCell id="1" parent="0" />
        <mxCell id="75gAX3Yvoy_RMpak__Cr-1" value="Fixed Top Nav Bar" style="swimlane;whiteSpace=wrap;html=1;" vertex="1" parent="1">
          <mxGeometry x="45" y="10" width="760" height="800" as="geometry" />
        </mxCell>
        <mxCell id="75gAX3Yvoy_RMpak__Cr-12" value="" style="rounded=0;whiteSpace=wrap;html=1;fillColor=default;strokeColor=none;" vertex="1" parent="75gAX3Yvoy_RMpak__Cr-1">
          <mxGeometry y="50" width="760" height="210" as="geometry" />
        </mxCell>
        <mxCell id="75gAX3Yvoy_RMpak__Cr-14" value="Picture" style="text;html=1;align=center;verticalAlign=middle;whiteSpace=wrap;rounded=0;" vertex="1" parent="75gAX3Yvoy_RMpak__Cr-1">
          <mxGeometry x="355" y="130" width="60" height="30" as="geometry" />
        </mxCell>
        <mxCell id="75gAX3Yvoy_RMpak__Cr-13" value="NAME" style="text;html=1;align=center;verticalAlign=middle;whiteSpace=wrap;rounded=0;" vertex="1" parent="75gAX3Yvoy_RMpak__Cr-1">
          <mxGeometry x="355" y="20" width="60" height="30" as="geometry" />
        </mxCell>
        <mxCell id="75gAX3Yvoy_RMpak__Cr-15" value="Carousel" style="text;html=1;align=center;verticalAlign=middle;whiteSpace=wrap;rounded=0;" vertex="1" parent="75gAX3Yvoy_RMpak__Cr-1">
          <mxGeometry x="345" y="300" width="60" height="30" as="geometry" />
        </mxCell>
        <mxCell id="75gAX3Yvoy_RMpak__Cr-2" value="Nav Bar" style="shape=table;startSize=30;container=1;collapsible=0;childLayout=tableLayout;fixedRows=1;rowLines=0;fontStyle=0;strokeColor=default;fontSize=16;fillColor=default;" vertex="1" parent="75gAX3Yvoy_RMpak__Cr-1">
          <mxGeometry width="160" height="120" as="geometry" />
        </mxCell>
        <mxCell id="75gAX3Yvoy_RMpak__Cr-3" value="" style="shape=tableRow;horizontal=0;startSize=0;swimlaneHead=0;swimlaneBody=0;top=0;left=0;bottom=0;right=0;collapsible=0;dropTarget=0;fillColor=none;points=[[0,0.5],[1,0.5]];portConstraint=eastwest;strokeColor=inherit;fontSize=16;" vertex="1" parent="75gAX3Yvoy_RMpak__Cr-2">
          <mxGeometry y="30" width="160" height="30" as="geometry" />
        </mxCell>
        <mxCell id="75gAX3Yvoy_RMpak__Cr-4" value="1" style="shape=partialRectangle;html=1;whiteSpace=wrap;connectable=0;fillColor=none;top=0;left=0;bottom=0;right=0;overflow=hidden;pointerEvents=1;strokeColor=inherit;fontSize=16;" vertex="1" parent="75gAX3Yvoy_RMpak__Cr-3">
          <mxGeometry width="36" height="30" as="geometry">
            <mxRectangle width="36" height="30" as="alternateBounds" />
          </mxGeometry>
        </mxCell>
        <mxCell id="75gAX3Yvoy_RMpak__Cr-5" value="Projects" style="shape=partialRectangle;html=1;whiteSpace=wrap;connectable=0;fillColor=none;top=0;left=0;bottom=0;right=0;align=left;spacingLeft=6;overflow=hidden;strokeColor=inherit;fontSize=16;" vertex="1" parent="75gAX3Yvoy_RMpak__Cr-3">
          <mxGeometry x="36" width="124" height="30" as="geometry">
            <mxRectangle width="124" height="30" as="alternateBounds" />
          </mxGeometry>
        </mxCell>
        <mxCell id="75gAX3Yvoy_RMpak__Cr-6" value="" style="shape=tableRow;horizontal=0;startSize=0;swimlaneHead=0;swimlaneBody=0;top=0;left=0;bottom=0;right=0;collapsible=0;dropTarget=0;fillColor=none;points=[[0,0.5],[1,0.5]];portConstraint=eastwest;strokeColor=inherit;fontSize=16;" vertex="1" parent="75gAX3Yvoy_RMpak__Cr-2">
          <mxGeometry y="60" width="160" height="30" as="geometry" />
        </mxCell>
        <mxCell id="75gAX3Yvoy_RMpak__Cr-7" value="2" style="shape=partialRectangle;html=1;whiteSpace=wrap;connectable=0;fillColor=none;top=0;left=0;bottom=0;right=0;overflow=hidden;strokeColor=inherit;fontSize=16;" vertex="1" parent="75gAX3Yvoy_RMpak__Cr-6">
          <mxGeometry width="36" height="30" as="geometry">
            <mxRectangle width="36" height="30" as="alternateBounds" />
          </mxGeometry>
        </mxCell>
        <mxCell id="75gAX3Yvoy_RMpak__Cr-8" value="Links" style="shape=partialRectangle;html=1;whiteSpace=wrap;connectable=0;fillColor=none;top=0;left=0;bottom=0;right=0;align=left;spacingLeft=6;overflow=hidden;strokeColor=inherit;fontSize=16;" vertex="1" parent="75gAX3Yvoy_RMpak__Cr-6">
          <mxGeometry x="36" width="124" height="30" as="geometry">
            <mxRectangle width="124" height="30" as="alternateBounds" />
          </mxGeometry>
        </mxCell>
        <mxCell id="75gAX3Yvoy_RMpak__Cr-9" value="" style="shape=tableRow;horizontal=0;startSize=0;swimlaneHead=0;swimlaneBody=0;top=0;left=0;bottom=0;right=0;collapsible=0;dropTarget=0;fillColor=none;points=[[0,0.5],[1,0.5]];portConstraint=eastwest;strokeColor=inherit;fontSize=16;" vertex="1" parent="75gAX3Yvoy_RMpak__Cr-2">
          <mxGeometry y="90" width="160" height="30" as="geometry" />
        </mxCell>
        <mxCell id="75gAX3Yvoy_RMpak__Cr-10" value="3" style="shape=partialRectangle;html=1;whiteSpace=wrap;connectable=0;fillColor=none;top=0;left=0;bottom=0;right=0;overflow=hidden;strokeColor=inherit;fontSize=16;" vertex="1" parent="75gAX3Yvoy_RMpak__Cr-9">
          <mxGeometry width="36" height="30" as="geometry">
            <mxRectangle width="36" height="30" as="alternateBounds" />
          </mxGeometry>
        </mxCell>
        <mxCell id="75gAX3Yvoy_RMpak__Cr-11" value="Contacts" style="shape=partialRectangle;html=1;whiteSpace=wrap;connectable=0;fillColor=none;top=0;left=0;bottom=0;right=0;align=left;spacingLeft=6;overflow=hidden;strokeColor=inherit;fontSize=16;" vertex="1" parent="75gAX3Yvoy_RMpak__Cr-9">
          <mxGeometry x="36" width="124" height="30" as="geometry">
            <mxRectangle width="124" height="30" as="alternateBounds" />
          </mxGeometry>
        </mxCell>
        <mxCell id="75gAX3Yvoy_RMpak__Cr-17" value="" style="rounded=1;whiteSpace=wrap;html=1;fillColor=#dae8fc;fillStyle=auto;strokeColor=#6c8ebf;" vertex="1" parent="75gAX3Yvoy_RMpak__Cr-1">
          <mxGeometry x="75" y="330" width="610" height="175" as="geometry" />
        </mxCell>
        <mxCell id="75gAX3Yvoy_RMpak__Cr-18" value="&lt;ul&gt;&lt;li&gt;Value 1&lt;/li&gt;&lt;li&gt;Value 2&lt;/li&gt;&lt;li&gt;Value 3&lt;/li&gt;&lt;/ul&gt;" style="text;strokeColor=none;fillColor=none;html=1;whiteSpace=wrap;verticalAlign=middle;overflow=hidden;align=center;" vertex="1" parent="75gAX3Yvoy_RMpak__Cr-1">
          <mxGeometry x="315" y="580" width="100" height="80" as="geometry" />
        </mxCell>
        <mxCell id="75gAX3Yvoy_RMpak__Cr-19" value="Links" style="text;html=1;align=center;verticalAlign=middle;whiteSpace=wrap;rounded=0;" vertex="1" parent="75gAX3Yvoy_RMpak__Cr-1">
          <mxGeometry x="355" y="550" width="60" height="30" as="geometry" />
        </mxCell>
        <mxCell id="75gAX3Yvoy_RMpak__Cr-20" value="Contact" style="text;html=1;align=center;verticalAlign=middle;whiteSpace=wrap;rounded=0;" vertex="1" parent="75gAX3Yvoy_RMpak__Cr-1">
          <mxGeometry x="350" y="700" width="60" height="30" as="geometry" />
        </mxCell>
        <mxCell id="75gAX3Yvoy_RMpak__Cr-21" value="About" style="text;html=1;align=center;verticalAlign=middle;whiteSpace=wrap;rounded=0;" vertex="1" parent="75gAX3Yvoy_RMpak__Cr-1">
          <mxGeometry x="350" y="750" width="60" height="30" as="geometry" />
        </mxCell>
      </root>
    </mxGraphModel>
  </diagram>
</mxfile>
